<?xml version="1.0" encoding="UTF-8" standalone="no"?>
<svg
   xmlns:dc="http://purl.org/dc/elements/1.1/"
   xmlns:cc="http://creativecommons.org/ns#"
   xmlns:rdf="http://www.w3.org/1999/02/22-rdf-syntax-ns#"
   xmlns:svg="http://www.w3.org/2000/svg"
   xmlns="http://www.w3.org/2000/svg"
   xmlns:sodipodi="http://sodipodi.sourceforge.net/DTD/sodipodi-0.dtd"
   xmlns:inkscape="http://www.inkscape.org/namespaces/inkscape"
   viewBox="0 0 240 240"
   height="240"
   width="240"
   id="svg985"
   version="1.1"
   sodipodi:docname="4_1_joined_plain.svg"
   inkscape:version="0.92.4 5da689c313, 2019-01-14">
  <sodipodi:namedview
     pagecolor="#ffffff"
     bordercolor="#666666"
     borderopacity="1"
     objecttolerance="10"
     gridtolerance="10"
     guidetolerance="10"
     inkscape:pageopacity="0"
     inkscape:pageshadow="2"
     inkscape:window-width="2856"
     inkscape:window-height="1732"
     id="namedview5541"
     showgrid="false"
     inkscape:zoom="0.98333333"
     inkscape:cx="-116.44068"
     inkscape:cy="120"
     inkscape:window-x="10"
     inkscape:window-y="54"
     inkscape:window-maximized="0"
     inkscape:current-layer="svg985" />
  <metadata
     id="metadata991">
    <rdf:RDF>
      <cc:Work
         rdf:about="">
        <dc:format>image/svg+xml</dc:format>
        <dc:type
           rdf:resource="http://purl.org/dc/dcmitype/StillImage" />
        <dc:title />
      </cc:Work>
    </rdf:RDF>
  </metadata>
  <defs
     id="defs989" />
  <path
     id="path1540"
     d="m 20.044019,153.08328 c -2.58532,31.79028 24.65751,60.47047 55.283152,64.76788 21.76283,5.14054 49.185339,2.60827 62.992559,-17.18746 8.90694,-13.60174 0.56117,-30.53969 -8.98953,-41.33683 C 111.90322,139.92951 90.547458,123.67003 76.527968,101.46724 66.690196,75.371866 66.516897,42.691676 85.795032,20.748486 97.534213,7.0481964 119.46552,0.66312636 135.08146,11.686556 c 24.60337,14.91845 35.5211,46.4362 29.76456,74.00314 -1.63399,12.57666 -6.79363,25.005734 -16.58006,33.395204 -14.87991,17.08554 -34.25534,29.84672 -48.09944,47.83711 -8.214154,12.11675 -10.056021,30.52775 1.52395,41.22651 12.62738,15.27209 32.56515,22.84865 52.11416,22.34281 24.08337,0.62516 48.22378,-12.72595 58.79321,-34.69576 18.81176,-33.52038 10.17362,-78.42519 -17.34236,-104.592764 -18.77631,-20.04237 -47.21157,-28.70636 -74.18696,-26.53391 -18.53165,-0.3412 -37.688108,1.83083 -53.82545,11.68057 -27.278041,15.22501 -48.148272,44.696454 -47.199051,76.733814 z"
     style="fill:none;stroke:#000000;stroke-width:1px;stroke-linecap:butt;stroke-linejoin:miter;stroke-opacity:1"
     inkscape:connector-curvature="0" />
</svg>
