<?xml version="1.0" encoding="UTF-8" standalone="no"?>
<!-- Created with Inkscape (http://www.inkscape.org/) -->

<svg
   xmlns:dc="http://purl.org/dc/elements/1.1/"
   xmlns:cc="http://creativecommons.org/ns#"
   xmlns:rdf="http://www.w3.org/1999/02/22-rdf-syntax-ns#"
   xmlns:svg="http://www.w3.org/2000/svg"
   xmlns="http://www.w3.org/2000/svg"
   xmlns:sodipodi="http://sodipodi.sourceforge.net/DTD/sodipodi-0.dtd"
   xmlns:inkscape="http://www.inkscape.org/namespaces/inkscape"
   version="1.1"
   id="svg2266"
   width="240"
   height="240"
   viewBox="0 0 240 240"
   sodipodi:docname="5_2_joined_plain.svg"
   inkscape:version="0.92.4 5da689c313, 2019-01-14">
  <metadata
     id="metadata2272">
    <rdf:RDF>
      <cc:Work
         rdf:about="">
        <dc:format>image/svg+xml</dc:format>
        <dc:type
           rdf:resource="http://purl.org/dc/dcmitype/StillImage" />
        <dc:title />
      </cc:Work>
    </rdf:RDF>
  </metadata>
  <defs
     id="defs2270" />
  <sodipodi:namedview
     pagecolor="#ffffff"
     bordercolor="#666666"
     borderopacity="1"
     objecttolerance="10"
     gridtolerance="10"
     guidetolerance="10"
     inkscape:pageopacity="0"
     inkscape:pageshadow="2"
     inkscape:window-width="2856"
     inkscape:window-height="1732"
     id="namedview2268"
     showgrid="false"
     inkscape:zoom="5.5625733"
     inkscape:cx="61.410358"
     inkscape:cy="120"
     inkscape:window-x="10"
     inkscape:window-y="54"
     inkscape:window-maximized="0"
     inkscape:current-layer="svg2266" />
  <path
     style="fill:none;stroke:#000000;stroke-width:1px;stroke-linecap:butt;stroke-linejoin:miter;stroke-opacity:1"
     d="m 144.89967,204.58201 c 21.75874,-18.83723 4.0453,-49.97565 -17.24794,-60.31717 -27.6103,-19.86951 -64.101519,-36.7049 -73.787386,-72.554666 -9.969014,-24.12246 1.145789,-61.27133 31.691944,-60.48149 33.877192,-0.0449 50.212542,34.76143 77.072662,49.47085 39.59549,17.59893 73.55736,59.260966 65.41251,104.671636 -5.6637,35.52732 -44.09262,58.31181 -78.45339,51.39662 -23.71093,-2.2925 -53.393056,-22.08392 -43.08856,-49.28201 13.28544,-39.8281 59.40282,-54.0954 75.548,-92.070966 12.16591,-21.05582 14.29364,-61.18793 -15.62372,-67.37995 -29.73943,-3.73578 -50.16726,22.4577 -67.301566,42.55955 C 83.160505,67.478524 58.573697,71.814294 41.875506,88.075764 8.1150452,114.38982 1.7652491,166.96706 27.174799,201.20889 c 19.564833,30.57686 63.086127,40.6491 93.991591,21.67669 8.43216,-5.13852 16.73209,-10.25612 23.73328,-18.30357 z"
     id="path2823"
     inkscape:connector-curvature="0"
     sodipodi:nodetypes="ccccccccccccccc" />
</svg>
