<?xml version="1.0" encoding="UTF-8" standalone="no"?>
<!-- Created with Inkscape (http://www.inkscape.org/) -->

<svg
   xmlns:dc="http://purl.org/dc/elements/1.1/"
   xmlns:cc="http://creativecommons.org/ns#"
   xmlns:rdf="http://www.w3.org/1999/02/22-rdf-syntax-ns#"
   xmlns:svg="http://www.w3.org/2000/svg"
   xmlns="http://www.w3.org/2000/svg"
   xmlns:sodipodi="http://sodipodi.sourceforge.net/DTD/sodipodi-0.dtd"
   xmlns:inkscape="http://www.inkscape.org/namespaces/inkscape"
   version="1.1"
   id="svg2891"
   width="240"
   height="240"
   viewBox="0 0 240 240"
   sodipodi:docname="6_1_joined_plain.svg"
   inkscape:version="0.92.4 5da689c313, 2019-01-14">
  <metadata
     id="metadata2897">
    <rdf:RDF>
      <cc:Work
         rdf:about="">
        <dc:format>image/svg+xml</dc:format>
        <dc:type
           rdf:resource="http://purl.org/dc/dcmitype/StillImage" />
        <dc:title />
      </cc:Work>
    </rdf:RDF>
  </metadata>
  <defs
     id="defs2895" />
  <sodipodi:namedview
     pagecolor="#ffffff"
     bordercolor="#666666"
     borderopacity="1"
     objecttolerance="10"
     gridtolerance="10"
     guidetolerance="10"
     inkscape:pageopacity="0"
     inkscape:pageshadow="2"
     inkscape:window-width="2856"
     inkscape:window-height="1732"
     id="namedview2893"
     showgrid="false"
     inkscape:zoom="5.5625733"
     inkscape:cx="96.263638"
     inkscape:cy="120"
     inkscape:window-x="10"
     inkscape:window-y="54"
     inkscape:window-maximized="0"
     inkscape:current-layer="svg2891" />
  <path
     style="fill:none;stroke:#000000;stroke-width:1px;stroke-linecap:butt;stroke-linejoin:miter;stroke-opacity:1"
     d="m 36.344037,199.80365 c 22.793568,24.1382 62.70046,24.41226 90.075453,8.43962 21.93194,-12.64894 15.05366,-40.2804 -0.27351,-55.18101 C 110.96534,132.08694 86.17439,122.53547 66.815271,106.50585 53.253585,93.178486 38.452979,77.102656 37.63129,57.128136 c 1.022012,-19.41654 21.725316,-27.97744 38.576684,-23.57063 21.861244,2.17259 41.050566,20.02578 63.672046,14.00675 21.68218,-5.7483 47.33374,-16.05785 67.72265,-1.06571 17.5858,11.62463 9.06461,35.0815 -2.20806,47.9272 -16.88879,24.271254 -47.78583,29.355244 -71.25209,44.692004 -16.66787,11.2866 -39.421697,23.28091 -40.417788,46.03218 -0.816792,21.65801 19.620448,36.93533 37.916378,43.94536 26.12209,10.12759 58.71682,0.82483 73.13396,-23.80134 19.87559,-31.68726 11.66159,-74.25383 -10.52133,-102.58442 C 183.58756,90.868556 174.25722,77.598796 171.28265,61.567586 166.20621,41.945966 161.49333,16.876026 140.37557,8.4115259 123.29811,1.6939759 102.97327,10.865336 95.997669,27.710376 84.326641,49.179786 78.60322,75.116416 58.106659,90.581256 34.297683,113.55896 15.472616,148.24894 26.254412,181.86381 c 2.126099,6.56738 5.472197,12.78446 10.089625,17.93984 z"
     id="path3444"
     inkscape:connector-curvature="0" />
</svg>
