<?xml version="1.0" encoding="UTF-8" standalone="no"?>
<!-- Created with Inkscape (http://www.inkscape.org/) -->

<svg
   xmlns:dc="http://purl.org/dc/elements/1.1/"
   xmlns:cc="http://creativecommons.org/ns#"
   xmlns:rdf="http://www.w3.org/1999/02/22-rdf-syntax-ns#"
   xmlns:svg="http://www.w3.org/2000/svg"
   xmlns="http://www.w3.org/2000/svg"
   xmlns:sodipodi="http://sodipodi.sourceforge.net/DTD/sodipodi-0.dtd"
   xmlns:inkscape="http://www.inkscape.org/namespaces/inkscape"
   version="1.1"
   id="svg4180"
   width="240"
   height="240"
   viewBox="0 0 240 240"
   sodipodi:docname="6_3_joined_plain.svg"
   inkscape:version="0.92.4 5da689c313, 2019-01-14">
  <metadata
     id="metadata4186">
    <rdf:RDF>
      <cc:Work
         rdf:about="">
        <dc:format>image/svg+xml</dc:format>
        <dc:type
           rdf:resource="http://purl.org/dc/dcmitype/StillImage" />
        <dc:title />
      </cc:Work>
    </rdf:RDF>
  </metadata>
  <defs
     id="defs4184" />
  <sodipodi:namedview
     pagecolor="#ffffff"
     bordercolor="#666666"
     borderopacity="1"
     objecttolerance="10"
     gridtolerance="10"
     guidetolerance="10"
     inkscape:pageopacity="0"
     inkscape:pageshadow="2"
     inkscape:window-width="2856"
     inkscape:window-height="1732"
     id="namedview4182"
     showgrid="false"
     inkscape:zoom="5.5625733"
     inkscape:cx="61.773418"
     inkscape:cy="120"
     inkscape:window-x="10"
     inkscape:window-y="54"
     inkscape:window-maximized="0"
     inkscape:current-layer="svg4180" />
  <path
     style="fill:none;stroke:#000000;stroke-width:1px;stroke-linecap:butt;stroke-linejoin:miter;stroke-opacity:1"
     d="m 69.222183,176.47852 c 3.82414,27.64786 25.4611,54.59423 54.582327,56.70144 27.21208,1.78232 50.42777,-20.66358 56.99695,-45.82773 2.32784,-10.65232 4.90476,-23.39476 -1.2483,-33.18947 -7.78829,-9.66861 -21.94618,-5.68274 -30.40823,0.775 -16.19798,7.47724 -30.95706,18.08175 -47.75114,24.17593 -17.853227,4.08718 -36.371017,-2.87795 -51.345587,-12.32054 -14.81373,-11.34355 -25.85214,-28.67027 -28.09927,-47.34462 -2.79794,-29.217385 16.04835,-59.847575 44.21553,-68.921735 19.54147,-4.7224 39.900977,-4.83661 59.631907,-1.23341 22.58074,3.39638 46.46095,8.22316 64.73247,22.72493 20.02587,18.31027 34.66995,46.459625 27.52052,74.035885 -3.74606,16.25825 -13.60275,32.74232 -29.4632,39.3928 -12.39486,4.33961 -27.8562,4.0343 -37.00522,-6.61421 C 138.75762,165.7655 133.71707,147.48643 123.10728,132.83468 111.65259,114.15912 95.184143,98.376605 87.173563,77.720905 c -6.73219,-20.70585 -0.24674,-44.74652 14.381637,-60.49757 9.61609,-10.5868795 28.16165,-15.5399195 39.33769,-4.57115 14.9997,15.24201 15.93593,39.55946 9.99728,59.03296 -3.37747,11.31906 -9.80701,21.87168 -20.10593,28.07908 -16.67765,11.423985 -34.513947,21.362295 -49.850007,34.622465 -11.92176,10.44329 -12.77544,27.40068 -11.71205,42.09183 z"
     id="path4733"
     inkscape:connector-curvature="0" />
</svg>
