<?xml version="1.0" encoding="UTF-8" standalone="no"?>
<svg
   xmlns:dc="http://purl.org/dc/elements/1.1/"
   xmlns:cc="http://creativecommons.org/ns#"
   xmlns:rdf="http://www.w3.org/1999/02/22-rdf-syntax-ns#"
   xmlns:svg="http://www.w3.org/2000/svg"
   xmlns="http://www.w3.org/2000/svg"
   viewBox="0 0 240 240"
   height="240"
   width="240"
   id="svg6753"
   version="1.1">
  <metadata
     id="metadata6759">
    <rdf:RDF>
      <cc:Work
         rdf:about="">
        <dc:format>image/svg+xml</dc:format>
        <dc:type
           rdf:resource="http://purl.org/dc/dcmitype/StillImage" />
        <dc:title></dc:title>
      </cc:Work>
    </rdf:RDF>
  </metadata>
  <defs
     id="defs6757" />
  <path
     id="path7306"
     d="m 85.032587,37.216157 c 1.959017,-32.6736615 49.490303,-52.767876 65.934133,-18.433132 13.69279,31.316569 34.03246,58.122637 65.84319,72.505866 32.13139,15.147729 29.04309,60.420069 -4.45612,71.693499 -39.0892,8.20155 -64.34121,37.47444 -90.66223,65.11806 -22.733863,23.89654 -59.988989,9.43544 -65.598171,-21.44107 -10.00726,-26.72277 7.178857,-58.74726 -13.405022,-82.40006 -18.23772,-24.411309 -38.7757172,-73.356015 1.587754,-87.694668 33.323238,-11.630683 65.037769,22.038574 97.583329,5.512673 23.88498,-12.483663 66.52784,-28.292415 77.23716,8.482061 8.59267,32.53525 -34.32425,54.120644 -24.28582,86.242594 15.11248,26.20217 25.33129,71.62596 -6.69378,89.2881 C 153.84802,239.4363 133.44693,202.85424 107.88597,189.11096 79.0196,173.95793 41.335612,195.38307 16.689539,169.57135 -4.9357185,143.91599 19.957846,108.60967 45.291779,96.678504 72.888428,88.206154 81.980332,63.426502 85.032587,37.216157 Z"
     style="fill:none;stroke:#000000;stroke-width:1px;stroke-linecap:butt;stroke-linejoin:miter;stroke-opacity:1" />
</svg>
