<?xml version="1.0" encoding="UTF-8" standalone="no"?>
<svg
   xmlns:dc="http://purl.org/dc/elements/1.1/"
   xmlns:cc="http://creativecommons.org/ns#"
   xmlns:rdf="http://www.w3.org/1999/02/22-rdf-syntax-ns#"
   xmlns:svg="http://www.w3.org/2000/svg"
   xmlns="http://www.w3.org/2000/svg"
   viewBox="0 0 309.93536 349.05789"
   height="349.05789"
   width="309.93536"
   id="svg2"
   version="1.1">
  <metadata
     id="metadata8">
    <rdf:RDF>
      <cc:Work
         rdf:about="">
        <dc:format>image/svg+xml</dc:format>
        <dc:type
           rdf:resource="http://purl.org/dc/dcmitype/StillImage" />
        <dc:title></dc:title>
      </cc:Work>
    </rdf:RDF>
  </metadata>
  <defs
     id="defs6" />
  <path
     transform="translate(-234.22484,-672.44025)"
     id="path4936"
     d="m 309.79661,999.59322 c -29.01228,40.81418 -104.11929,8.55028 -65.69491,-38 33.80775,-40.95735 100.71433,-93.93701 73.91733,-151.19992 -14.03428,-29.99006 -31.55906,-83.19542 4.65891,-114.80008 37.46831,-32.69573 114.94173,-33.41637 132.67796,18.67797 20.94651,61.52347 -57.84184,89.70669 -107.84449,91.51672 -95.01563,3.43945 -96.01143,105.83383 -50.46328,171.09683 35.3563,50.65976 130.46804,55.49316 149.29085,0.81017 18.21856,-52.92754 57.97194,-90.81686 65.69492,-124.94915 17.58359,-77.71203 15.00383,-140.84933 -77.59339,-156.82451 -48.68566,-8.39941 -27.87398,73.17783 25.41795,85.64907 59.06048,13.82118 98.38035,67.22239 81.34838,135.48632 -13.67143,54.79494 -13.57709,46.79457 -16.29158,57.41794 -13.58556,53.16822 -70.89492,54.30982 -124.1448,4.93469 -27.50134,-25.50018 -55.86211,-20.38265 -79.97112,3.09328 0,0 -3.30134,5.46055 -3.30134,5.46055 0,0 -7.70139,11.63012 -7.70139,11.63012 z"
     style="opacity:1;fill:none;fill-opacity:0.60869565;stroke:#000000;stroke-width:0.32125986;stroke-miterlimit:4;stroke-dasharray:none;stroke-dashoffset:0;stroke-opacity:1" />
</svg>
