<?xml version="1.0" encoding="UTF-8" standalone="no"?>
<!-- Created with Inkscape (http://www.inkscape.org/) -->

<svg
   xmlns:dc="http://purl.org/dc/elements/1.1/"
   xmlns:cc="http://creativecommons.org/ns#"
   xmlns:rdf="http://www.w3.org/1999/02/22-rdf-syntax-ns#"
   xmlns:svg="http://www.w3.org/2000/svg"
   xmlns="http://www.w3.org/2000/svg"
   xmlns:sodipodi="http://sodipodi.sourceforge.net/DTD/sodipodi-0.dtd"
   xmlns:inkscape="http://www.inkscape.org/namespaces/inkscape"
   version="1.1"
   id="svg856"
   width="240"
   height="240"
   viewBox="0 0 240 240"
   sodipodi:docname="7_3_joined_plain.svg"
   inkscape:version="0.92.4 5da689c313, 2019-01-14">
  <metadata
     id="metadata862">
    <rdf:RDF>
      <cc:Work
         rdf:about="">
        <dc:format>image/svg+xml</dc:format>
        <dc:type
           rdf:resource="http://purl.org/dc/dcmitype/StillImage" />
        <dc:title />
      </cc:Work>
    </rdf:RDF>
  </metadata>
  <defs
     id="defs860" />
  <sodipodi:namedview
     pagecolor="#ffffff"
     bordercolor="#666666"
     borderopacity="1"
     objecttolerance="10"
     gridtolerance="10"
     guidetolerance="10"
     inkscape:pageopacity="0"
     inkscape:pageshadow="2"
     inkscape:window-width="2856"
     inkscape:window-height="1732"
     id="namedview858"
     showgrid="false"
     inkscape:zoom="5.9"
     inkscape:cx="80.59322"
     inkscape:cy="120"
     inkscape:window-x="10"
     inkscape:window-y="54"
     inkscape:window-maximized="1"
     inkscape:current-layer="svg856" />
  <path
     style="fill:none;stroke:#000000;stroke-width:1px;stroke-linecap:butt;stroke-linejoin:miter;stroke-opacity:1"
     d="m 62.243212,220.91915 c 29.99436,20.66594 72.531588,8.7122 84.610098,-25.25741 4.30189,-14.32118 -8.42973,-25.87553 -19.87468,-31.82303 -9.59773,-7.07595 -33.293325,-15.54027 -31.382718,-30.43613 -1.327728,-12.29349 19.663468,-23.90868 31.791418,-27.41119 24.9711,-9.197061 36.02931,-3.06236 55.68553,-21.014801 11.91544,-8.80735 21.5206,-24.63796 15.15262,-39.55988 -6.23059,-14.86746 -25.30446,-16.00593 -38.97572,-13.00596 -13.64869,2.27914 -25.98621,15.19391 -40.43283,9.22357 -16.65104,-9.41088 -33.528076,-24.24981 -54.046012,-20.90689 -13.318875,1.05547 -24.963874,21.972816 -20.557556,33.167556 6.636211,20.58555 28.191533,31.795403 47.130654,41.178043 14.968414,7.978422 39.446334,19.185202 44.795614,36.030172 3.36299,14.7306 -13.54738,26.90048 -23.43319,36.70845 -7.31971,5.31103 -11.08413,15.48822 -10.71927,24.29845 -0.1393,15.18808 28.30683,23.47562 42.12501,26.23834 19.72691,3.24693 53.06779,-22.09645 53.99345,-49.59699 -0.43028,-58.17851 -12.23089,-84.897991 -26.41142,-98.709331 -13.53725,-16.79607 -7.54763,-43.79769 -26.44738,-57.08994 -11.72462,-10.4582995 -30.01518,-8.3854495 -41.12723,1.86966 -12.182887,8.83598 -13.839627,24.88281 -23.660926,35.5667 -14.009023,17.98391 -34.652878,28.52787 -42.307778,86.657731 -7.6549,58.12986 9.056698,70.27507 24.092316,83.87288 z"
     id="path866"
     inkscape:connector-curvature="0"
     sodipodi:nodetypes="ccccccccccccccccccccccc" />
</svg>
