<?xml version="1.0" encoding="UTF-8" standalone="no"?>
<!-- Created with Inkscape (http://www.inkscape.org/) -->

<svg
   xmlns:dc="http://purl.org/dc/elements/1.1/"
   xmlns:cc="http://creativecommons.org/ns#"
   xmlns:rdf="http://www.w3.org/1999/02/22-rdf-syntax-ns#"
   xmlns:svg="http://www.w3.org/2000/svg"
   xmlns="http://www.w3.org/2000/svg"
   xmlns:sodipodi="http://sodipodi.sourceforge.net/DTD/sodipodi-0.dtd"
   xmlns:inkscape="http://www.inkscape.org/namespaces/inkscape"
   version="1.1"
   id="svg969"
   width="240"
   height="240"
   viewBox="0 0 240 240"
   sodipodi:docname="7_5_joined_plain.svg"
   inkscape:version="0.92.4 5da689c313, 2019-01-14">
  <metadata
     id="metadata975">
    <rdf:RDF>
      <cc:Work
         rdf:about="">
        <dc:format>image/svg+xml</dc:format>
        <dc:type
           rdf:resource="http://purl.org/dc/dcmitype/StillImage" />
        <dc:title></dc:title>
      </cc:Work>
    </rdf:RDF>
  </metadata>
  <defs
     id="defs973" />
  <sodipodi:namedview
     pagecolor="#ffffff"
     bordercolor="#666666"
     borderopacity="1"
     objecttolerance="10"
     gridtolerance="10"
     guidetolerance="10"
     inkscape:pageopacity="0"
     inkscape:pageshadow="2"
     inkscape:window-width="2856"
     inkscape:window-height="1732"
     id="namedview971"
     showgrid="false"
     inkscape:zoom="5.5625733"
     inkscape:cx="95.220355"
     inkscape:cy="120"
     inkscape:window-x="10"
     inkscape:window-y="54"
     inkscape:window-maximized="0"
     inkscape:current-layer="svg969" />
  <path
     style="fill:none;stroke:#000000;stroke-width:1px;stroke-linecap:butt;stroke-linejoin:miter;stroke-opacity:1"
     d="m 69.106297,46.194125 c 40.116923,-30.32639 106.890483,-12.85832 130.551993,32.5768 14.58243,27.989695 3.22068,61.607515 -15.74662,84.470145 -15.26263,18.65364 -33.64606,34.45047 -51.34067,50.70552 -19.12138,16.37495 -47.788123,28.79214 -71.845483,15.48829 -18.92232,-11.17717 -16.54787,-37.77863 -8.09679,-54.95296 19.97683,-22.04047 48.583013,-32.46021 70.312193,-48.14296 15.92057,-9.82792 13.17583,-22.44192 3.34734,-29.442425 -8.02653,-4.93904 -32.541713,-11.91658 -42.751983,-27.43314 -12.47738,-24.39619 -2.88971,-60.51763 25.135073,-68.74727 22.57312,-7.11414 43.48657,13.82634 45.7172,35.27749 3.059,15.71787 -0.84346,25.75699 -12.11515,35.90835 -12.23353,13.03079 -48.133698,26.631855 -38.70707,45.372795 14.29385,22.54712 58.66661,38.76107 75.30253,59.19607 13.27038,14.04811 16.27713,39.03092 0.23977,52.26273 -14.70329,13.4568 -41.76384,11.26036 -56.26339,-1.2527 -23.616203,-14.60768 -42.611163,-30.40358 -62.922423,-49.27185 -26.42146,-23.59052 -29.26795,-64.90562 -16.96826,-96.361595 4.59283,-12.48517 13.22723,-26.7917 26.15174,-35.65329 z"
     id="path1524"
     inkscape:connector-curvature="0"
     sodipodi:nodetypes="ccccccccccccccccccc" />
</svg>
