<?xml version="1.0" encoding="UTF-8" standalone="no"?>
<svg
   xmlns:dc="http://purl.org/dc/elements/1.1/"
   xmlns:cc="http://creativecommons.org/ns#"
   xmlns:rdf="http://www.w3.org/1999/02/22-rdf-syntax-ns#"
   xmlns:svg="http://www.w3.org/2000/svg"
   xmlns="http://www.w3.org/2000/svg"
   viewBox="0 0 240 240"
   height="240"
   width="240"
   id="svg2333"
   version="1.1">
  <metadata
     id="metadata2339">
    <rdf:RDF>
      <cc:Work
         rdf:about="">
        <dc:format>image/svg+xml</dc:format>
        <dc:type
           rdf:resource="http://purl.org/dc/dcmitype/StillImage" />
        <dc:title></dc:title>
      </cc:Work>
    </rdf:RDF>
  </metadata>
  <defs
     id="defs2337" />
  <path
     id="path2894"
     d="M 86.928246,157.33429 C 100.6003,115.36976 71.515329,68.337544 96.196611,28.799602 108.22869,5.1251655 147.81523,4.7814953 151.90251,34.340183 c 5.88063,37.859033 -11.5224,76.874757 1.37081,114.337787 9.33695,30.72808 29.30549,51.94427 59.20963,43.48515 24.45976,-6.0403 32.86915,-34.3594 23.28129,-53.33425 -16.65238,-24.37788 -47.44385,-29.37703 -69.464,-30.11722 -27.71407,0.23831 -54.25345,11.73435 -81.693863,6.5779 -28.216896,-2.92923 -62.171618,13.26578 -64.153253,44.55291 -5.509804,44.90534 36.380102,78.35686 81.104676,74.9282 29.70586,-0.41234 54.15253,-11.91611 76.16398,-29.66977 21.7977,-17.88801 32.8656,-43.6322 45.72634,-69.47229 C 234.04301,103.50259 224.4089,62.150121 206.0938,47.781954 187.88753,33.383354 151.90251,34.340183 130.27541,40.473643 97.656884,46.385979 81.113652,24.992467 49.06371,38.302977 14.187431,48.8973 -7.9601267,89.647463 5.4746626,124.29522 c 8.7480294,25.48443 32.6770584,51.37945 61.5447934,49.17352 8.886034,-1.21565 17.725408,-7.00536 19.90879,-16.13445 z"
     style="fill:none;stroke:#000000;stroke-width:1px;stroke-linecap:butt;stroke-linejoin:miter;stroke-opacity:1" />
</svg>
